{
    "asset" : {
        "generator" : "Khronos glTF Blender I/O v1.8.19",
        "version" : "2.0"
    },
    "scene" : 0,
    "scenes" : [
        {
            "name" : "Scene",
            "nodes" : [
                0,
                1,
                2,
                3
            ]
        }
    ],
    "nodes" : [
        {
            "mesh" : 0,
            "name" : "Platte",
            "scale" : [
                1,
                0.008999999612569809,
                1
            ]
        },
        {
            "mesh" : 1,
            "name" : "y3cv970pq2bg",
            "rotation" : [
                0.7071068286895752,
                0,
                0,
                0.7071067094802856
            ],
            "scale" : [
                3,
                3,
                3
            ],
            "translation" : [
                -0.7151920795440674,
                -0.009999999776482582,
                -0.7799999713897705
            ]
        },
        {
            "mesh" : 2,
            "name" : "y3cv970pq2bg.001",
            "rotation" : [
                0.7071068286895752,
                0,
                0,
                0.7071067094802856
            ],
            "scale" : [
                3,
                3,
                3
            ],
            "translation" : [
                0.48825955390930176,
                -0.009999999776482582,
                -0.7799999713897705
            ]
        },
        {
            "mesh" : 3,
            "name" : "y3cv970pq2bg.002",
            "rotation" : [
                0.7071068286895752,
                0,
                0,
                0.7071067094802856
            ],
            "scale" : [
                3,
                3,
                3
            ],
            "translation" : [
                -0.11385560780763626,
                -0.009999999776482582,
                -0.7799999713897705
            ]
        }
    ],
    "materials" : [
        {
            "doubleSided" : true,
            "name" : "Material",
            "pbrMetallicRoughness" : {
                "baseColorFactor" : [
                    0.800000011920929,
                    0.800000011920929,
                    0.800000011920929,
                    1
                ],
                "metallicFactor" : 0,
                "roughnessFactor" : 0.4000000059604645
            }
        },
        {
            "doubleSided" : true,
            "name" : "Steel_Brushed_Stainless",
            "pbrMetallicRoughness" : {
                "baseColorTexture" : {
                    "index" : 0
                },
                "metallicFactor" : 0,
                "roughnessFactor" : 0.8999999761581421
            }
        },
        {
            "doubleSided" : true,
            "name" : "Aluminum",
            "pbrMetallicRoughness" : {
                "baseColorTexture" : {
                    "index" : 1
                },
                "metallicFactor" : 0,
                "roughnessFactor" : 0.8999999761581421
            }
        }
    ],
    "meshes" : [
        {
            "name" : "Cube",
            "primitives" : [
                {
                    "attributes" : {
                        "POSITION" : 0,
                        "NORMAL" : 1,
                        "TEXCOORD_0" : 2
                    },
                    "indices" : 3,
                    "material" : 0
                }
            ]
        },
        {
            "name" : "y3cv970pq2bg",
            "primitives" : [
                {
                    "attributes" : {
                        "POSITION" : 4,
                        "NORMAL" : 5,
                        "TEXCOORD_0" : 6
                    },
                    "indices" : 7,
                    "material" : 1
                },
                {
                    "attributes" : {
                        "POSITION" : 8,
                        "NORMAL" : 9,
                        "TEXCOORD_0" : 10
                    },
                    "indices" : 11,
                    "material" : 2
                }
            ]
        },
        {
            "name" : "y3cv970pq2bg.001",
            "primitives" : [
                {
                    "attributes" : {
                        "POSITION" : 12,
                        "NORMAL" : 13,
                        "TEXCOORD_0" : 14
                    },
                    "indices" : 7,
                    "material" : 1
                },
                {
                    "attributes" : {
                        "POSITION" : 15,
                        "NORMAL" : 16,
                        "TEXCOORD_0" : 17
                    },
                    "indices" : 11,
                    "material" : 2
                }
            ]
        },
        {
            "name" : "y3cv970pq2bg.002",
            "primitives" : [
                {
                    "attributes" : {
                        "POSITION" : 18,
                        "NORMAL" : 19,
                        "TEXCOORD_0" : 20
                    },
                    "indices" : 7,
                    "material" : 1
                },
                {
                    "attributes" : {
                        "POSITION" : 21,
                        "NORMAL" : 22,
                        "TEXCOORD_0" : 23
                    },
                    "indices" : 11,
                    "material" : 2
                }
            ]
        }
    ],
    "textures" : [
        {
            "sampler" : 0,
            "source" : 0
        },
        {
            "sampler" : 0,
            "source" : 1
        }
    ],
    "images" : [
        {
            "bufferView" : 8,
            "mimeType" : "image/jpeg",
            "name" : "Steel_Brushed_Stainless"
        },
        {
            "bufferView" : 13,
            "mimeType" : "image/jpeg",
            "name" : "Aluminum"
        }
    ],
    "accessors" : [
        {
            "bufferView" : 0,
            "componentType" : 5126,
            "count" : 24,
            "max" : [
                1,
                1,
                1
            ],
            "min" : [
                -1,
                -1,
                -1
            ],
            "type" : "VEC3"
        },
        {
            "bufferView" : 1,
            "componentType" : 5126,
            "count" : 24,
            "type" : "VEC3"
        },
        {
            "bufferView" : 2,
            "componentType" : 5126,
            "count" : 24,
            "type" : "VEC2"
        },
        {
            "bufferView" : 3,
            "componentType" : 5123,
            "count" : 36,
            "type" : "SCALAR"
        },
        {
            "bufferView" : 4,
            "componentType" : 5126,
            "count" : 1991,
            "max" : [
                0.07599999755620956,
                -0.08700000494718552,
                0
            ],
            "min" : [
                0,
                -0.09800000488758087,
                -0.01549999974668026
            ],
            "type" : "VEC3"
        },
        {
            "bufferView" : 5,
            "componentType" : 5126,
            "count" : 1991,
            "type" : "VEC3"
        },
        {
            "bufferView" : 6,
            "componentType" : 5126,
            "count" : 1991,
            "type" : "VEC2"
        },
        {
            "bufferView" : 7,
            "componentType" : 5123,
            "count" : 2568,
            "type" : "SCALAR"
        },
        {
            "bufferView" : 9,
            "componentType" : 5126,
            "count" : 1101,
            "max" : [
                0.043000008910894394,
                0,
                -0.001635898370295763
            ],
            "min" : [
                0.03300000727176666,
                -0.0924999937415123,
                -0.011635899543762207
            ],
            "type" : "VEC3"
        },
        {
            "bufferView" : 10,
            "componentType" : 5126,
            "count" : 1101,
            "type" : "VEC3"
        },
        {
            "bufferView" : 11,
            "componentType" : 5126,
            "count" : 1101,
            "type" : "VEC2"
        },
        {
            "bufferView" : 12,
            "componentType" : 5123,
            "count" : 1362,
            "type" : "SCALAR"
        },
        {
            "bufferView" : 14,
            "componentType" : 5126,
            "count" : 1991,
            "max" : [
                0.07599999755620956,
                -0.08700000494718552,
                0
            ],
            "min" : [
                0,
                -0.09800000488758087,
                -0.01549999974668026
            ],
            "type" : "VEC3"
        },
        {
            "bufferView" : 15,
            "componentType" : 5126,
            "count" : 1991,
            "type" : "VEC3"
        },
        {
            "bufferView" : 16,
            "componentType" : 5126,
            "count" : 1991,
            "type" : "VEC2"
        },
        {
            "bufferView" : 17,
            "componentType" : 5126,
            "count" : 1101,
            "max" : [
                0.043000008910894394,
                0,
                -0.001635898370295763
            ],
            "min" : [
                0.03300000727176666,
                -0.0924999937415123,
                -0.011635899543762207
            ],
            "type" : "VEC3"
        },
        {
            "bufferView" : 18,
            "componentType" : 5126,
            "count" : 1101,
            "type" : "VEC3"
        },
        {
            "bufferView" : 19,
            "componentType" : 5126,
            "count" : 1101,
            "type" : "VEC2"
        },
        {
            "bufferView" : 20,
            "componentType" : 5126,
            "count" : 1991,
            "max" : [
                0.07599999755620956,
                -0.08700000494718552,
                0
            ],
            "min" : [
                0,
                -0.09800000488758087,
                -0.01549999974668026
            ],
            "type" : "VEC3"
        },
        {
            "bufferView" : 21,
            "componentType" : 5126,
            "count" : 1991,
            "type" : "VEC3"
        },
        {
            "bufferView" : 22,
            "componentType" : 5126,
            "count" : 1991,
            "type" : "VEC2"
        },
        {
            "bufferView" : 23,
            "componentType" : 5126,
            "count" : 1101,
            "max" : [
                0.043000008910894394,
                0,
                -0.001635898370295763
            ],
            "min" : [
                0.03300000727176666,
                -0.0924999937415123,
                -0.011635899543762207
            ],
            "type" : "VEC3"
        },
        {
            "bufferView" : 24,
            "componentType" : 5126,
            "count" : 1101,
            "type" : "VEC3"
        },
        {
            "bufferView" : 25,
            "componentType" : 5126,
            "count" : 1101,
            "type" : "VEC2"
        }
    ],
    "bufferViews" : [
        {
            "buffer" : 0,
            "byteLength" : 288,
            "byteOffset" : 0
        },
        {
            "buffer" : 0,
            "byteLength" : 288,
            "byteOffset" : 288
        },
        {
            "buffer" : 0,
            "byteLength" : 192,
            "byteOffset" : 576
        },
        {
            "buffer" : 0,
            "byteLength" : 72,
            "byteOffset" : 768
        },
        {
            "buffer" : 0,
            "byteLength" : 23892,
            "byteOffset" : 840
        },
        {
            "buffer" : 0,
            "byteLength" : 23892,
            "byteOffset" : 24732
        },
        {
            "buffer" : 0,
            "byteLength" : 15928,
            "byteOffset" : 48624
        },
        {
            "buffer" : 0,
            "byteLength" : 5136,
            "byteOffset" : 64552
        },
        {
            "buffer" : 0,
            "byteLength" : 27544,
            "byteOffset" : 69688
        },
        {
            "buffer" : 0,
            "byteLength" : 13212,
            "byteOffset" : 97232
        },
        {
            "buffer" : 0,
            "byteLength" : 13212,
            "byteOffset" : 110444
        },
        {
            "buffer" : 0,
            "byteLength" : 8808,
            "byteOffset" : 123656
        },
        {
            "buffer" : 0,
            "byteLength" : 2724,
            "byteOffset" : 132464
        },
        {
            "buffer" : 0,
            "byteLength" : 12471,
            "byteOffset" : 135188
        },
        {
            "buffer" : 0,
            "byteLength" : 23892,
            "byteOffset" : 147660
        },
        {
            "buffer" : 0,
            "byteLength" : 23892,
            "byteOffset" : 171552
        },
        {
            "buffer" : 0,
            "byteLength" : 15928,
            "byteOffset" : 195444
        },
        {
            "buffer" : 0,
            "byteLength" : 13212,
            "byteOffset" : 211372
        },
        {
            "buffer" : 0,
            "byteLength" : 13212,
            "byteOffset" : 224584
        },
        {
            "buffer" : 0,
            "byteLength" : 8808,
            "byteOffset" : 237796
        },
        {
            "buffer" : 0,
            "byteLength" : 23892,
            "byteOffset" : 246604
        },
        {
            "buffer" : 0,
            "byteLength" : 23892,
            "byteOffset" : 270496
        },
        {
            "buffer" : 0,
            "byteLength" : 15928,
            "byteOffset" : 294388
        },
        {
            "buffer" : 0,
            "byteLength" : 13212,
            "byteOffset" : 310316
        },
        {
            "buffer" : 0,
            "byteLength" : 13212,
            "byteOffset" : 323528
        },
        {
            "buffer" : 0,
            "byteLength" : 8808,
            "byteOffset" : 336740
        }
    ],
    "samplers" : [
        {
            "magFilter" : 9729,
            "minFilter" : 9987
        }
    ],
    "buffers" : [
        {
            "byteLength" : 345548,
            "uri" : "data:application/octet-stream;base64,"
        }
    ]
}
